<control>
default_path=samples/Brushplate/


<group> loop_mode=one_shot
<region> sample=brushplate 01.wav  key=c3
<region> sample=brushplate 02.wav  key=d3
<region> sample=brushplate 03.wav  key=e3
<region> sample=brushplate 04.wav  key=f3
<region> sample=brushplate 05.wav  key=g3
<region> sample=brushplate 10.wav  key=a3
<region> sample=brushplate 07.wav  key=b3
<region> sample=brushplate 08.wav  key=c4
<region> sample=brushplate 09.wav  key=d4
<region> sample=brushplate 06.wav  key=e4
